# xmcd
#
# Track frame offsets: 
#        150
#        18977
#        35300
#        49682
#        69387
#        86022
#        101860
#        118290
#        137167
#        155880
#        175050
#        191395
#        202935
#        231835
#        247300
#        263307
#        280130
#
# Disc length: 4016 seconds
#
# Revision: 47
# Processed by: cddbd v1.5.2PL0 Copyright (c) Steve Scherf et al.
# Submitted via: ExactAudioCopy v1.0b1
#
DISCID=ee0fae11
DTITLE=Fleetwood Mac (Greatest Hits) - Greatest Hits
DYEAR=1988
DGENRE=Country
TTITLE0=Rhiannon
TTITLE1=Go your own way
TTITLE2=Don't stop
TTITLE3=Gypsy
TTITLE4=Everywhere
TTITLE5=You make loving fun
TTITLE6=Big love
TTITLE7=As long as you follow
TTITLE8=Say you love me
TTITLE9=Dreams
TTITLE10=Little lies
TTITLE11=Oh Diane
TTITLE12=Sara
TTITLE13=Tusk
TTITLE14=Seven wonders
TTITLE15=Hold me
TTITLE16=No questions asked
EXTD=
EXTT0=
EXTT1=
EXTT2=
EXTT3=
EXTT4=
EXTT5=
EXTT6=
EXTT7=
EXTT8=
EXTT9=
EXTT10=
EXTT11=
EXTT12=
EXTT13=
EXTT14=
EXTT15=
EXTT16=
PLAYORDER=
